<svg width="18" height="18" viewBox="0 0 18 18" fill="none" xmlns="http://www.w3.org/2000/svg">
<path d="M16.4602 6.88426C16.4131 6.74541 16.3263 6.6234 16.2106 6.53331C16.0949 6.44321 15.9554 6.38896 15.8092 6.37726L11.5335 6.03751L9.68321 1.94176C9.62428 1.80985 9.52844 1.6978 9.40724 1.61915C9.28605 1.54051 9.14468 1.49861 9.0002 1.49854C8.85572 1.49846 8.71431 1.54019 8.59303 1.61871C8.47175 1.69722 8.37578 1.80916 8.31671 1.94101L6.46646 6.03751L2.19071 6.37726C2.04705 6.38864 1.90971 6.44117 1.79512 6.52856C1.68054 6.61595 1.59355 6.7345 1.54458 6.87003C1.4956 7.00556 1.48671 7.15234 1.51897 7.29279C1.55122 7.43324 1.62326 7.56143 1.72646 7.66201L4.88621 10.7423L3.76871 15.5813C3.73478 15.7277 3.74565 15.881 3.79992 16.0212C3.85419 16.1615 3.94936 16.2821 4.07306 16.3676C4.19676 16.4531 4.3433 16.4994 4.49365 16.5005C4.644 16.5016 4.79122 16.4576 4.91621 16.374L8.99996 13.6515L13.0837 16.374C13.2115 16.4588 13.3621 16.5025 13.5154 16.4991C13.6687 16.4958 13.8173 16.4455 13.9413 16.3552C14.0652 16.2649 14.1584 16.1387 14.2085 15.9938C14.2586 15.8489 14.2631 15.6921 14.2215 15.5445L12.8497 10.7445L16.2517 7.68301C16.4745 7.48201 16.5562 7.16851 16.4602 6.88426Z" fill="#F2C94C"/>
</svg>
