<svg width="37" height="97" viewBox="0 0 37 97" fill="none" xmlns="http://www.w3.org/2000/svg">
<path d="M12.8834 53.7563C9.82831 54.8497 7.86664 56.0717 5.67986 58.2264C0.148589 63.7255 -1.45934 71.0576 1.37061 78.229C2.65696 81.4448 4.42568 83.6638 11.0182 90.192C19.1543 98.2638 17.8679 98.2959 26.1649 90.0312C29.6058 86.6545 32.9503 83.0528 33.5935 82.088C38.8032 74.4664 37.967 64.851 31.5675 58.4193C29.3486 56.2325 27.3869 54.9784 24.3961 53.885C20.8909 52.6308 21.0838 52.4057 21.0838 57.9691V62.7607L22.8204 63.8863C26.39 66.1695 27.1939 68.1955 27.1939 74.7237C27.1939 78.9365 27.1618 79.1937 26.4864 79.644C25.5538 80.2871 24.8142 80.2871 24.171 79.644C23.7851 79.2581 23.6565 78.4219 23.6565 75.9457C23.6565 73.1801 23.56 72.6656 23.0133 72.1189C22.6596 71.7651 22.1129 71.4757 21.7913 71.4757C20.6657 71.4757 20.4406 72.151 20.4406 75.399C20.4406 79.3867 20.119 80.1585 18.4468 80.1585C16.8389 80.1585 16.5816 79.5153 16.5816 75.6241C16.5816 74.0162 16.4208 72.4404 16.26 72.0867C15.8098 71.2827 14.8129 71.3149 14.0089 72.1189C13.4622 72.6656 13.3658 73.1801 13.3658 75.9457C13.3658 78.4219 13.2371 79.2581 12.8512 79.644C12.208 80.2871 11.4684 80.2871 10.5358 79.644C9.86047 79.1937 9.82831 78.9365 9.82831 74.7237C9.82831 68.1955 10.6323 66.1695 14.2019 63.8863L15.9384 62.7607V57.9691C15.9384 52.4378 16.0671 52.6308 12.8834 53.7563Z" fill="#28B26F"/>
</svg>
