<svg width="114" height="111" viewBox="0 0 114 111" fill="none" xmlns="http://www.w3.org/2000/svg">
<rect y="30.864" width="90.2402" height="85.279" rx="20" transform="rotate(-20 0 30.864)" fill="#28B26F"/>
<g clip-path="url(#clip0_1_693)">
<path d="M64.3395 74.7176C53.4983 78.6635 41.5118 73.0741 37.5659 62.2329C33.62 51.3917 39.2095 39.4051 50.0507 35.4593C60.8919 31.5134 72.8784 37.1028 76.8243 47.944C80.7701 58.7852 75.1807 70.7718 64.3395 74.7176ZM62.9106 70.7918C67.0754 69.2759 70.4675 66.1677 72.3405 62.1509C74.2136 58.1341 74.4143 53.5377 72.8984 49.3729C71.3826 45.2081 68.2744 41.8161 64.2575 39.943C60.2407 38.0699 55.6443 37.8692 51.4795 39.3851C47.3148 40.901 43.9227 44.0092 42.0497 48.026C40.1766 52.0428 39.9759 56.6392 41.4918 60.804C43.0076 64.9688 46.1158 68.3608 50.1327 70.2339C54.1495 72.107 58.7459 72.3076 62.9106 70.7918ZM59.158 54.374L67.0097 51.5162L68.4386 55.4421L56.6611 59.7287L51.66 45.9883L55.5858 44.5594L59.158 54.374Z" fill="white"/>
</g>
<defs>
<clipPath id="clip0_1_693">
<rect width="50" height="50" fill="white" transform="translate(25.0667 40.1067) scale(1.00267) rotate(-20)"/>
</clipPath>
</defs>
</svg>
